<svg width="102" height="23" viewBox="0 0 102 23" fill="none" xmlns="http://www.w3.org/2000/svg">
<path d="M11.898 17.606C14.5393 17.2711 16.673 15.1375 17.01 12.494C17.1277 11.5918 17.0365 10.6746 16.7435 9.81322C16.4505 8.95182 15.9636 8.16924 15.3202 7.52587C14.6768 6.8825 13.8942 6.39553 13.0328 6.10254C12.1714 5.80955 11.2542 5.71837 10.352 5.83603C7.70859 6.17304 5.57491 8.30672 5.24001 10.948C5.12234 11.8502 5.21353 12.7674 5.50652 13.6288C5.79951 14.4903 6.28648 15.2728 6.92985 15.9162C7.57322 16.5596 8.3558 17.0465 9.2172 17.3395C10.0786 17.6325 10.9958 17.7237 11.898 17.606V17.606ZM12.2582 0.654526C14.8011 0.922227 17.1751 2.05479 18.9832 3.86286C20.7913 5.67093 21.9238 8.0449 22.1915 10.5878C22.8887 17.6229 17.0248 23.4868 9.98761 22.7897C7.44505 22.5215 5.07157 21.3887 3.26392 19.5807C1.45628 17.7727 0.324013 15.399 0.0563983 12.8563C-0.640788 5.82128 5.22316 -0.0426595 12.2582 0.654526ZM28.1608 1.09474H44.4446C45.0639 1.09474 45.4135 1.80246 45.0407 2.29534L33.7741 17.1595H42.6016C44.2108 17.1595 45.4767 18.6234 45.1439 20.2916C44.8996 21.5153 43.7516 22.3494 42.5047 22.3494H24.8202C24.2073 22.3494 23.8597 21.648 24.2283 21.1615L35.5033 6.28467H28.2577C27.0107 6.28467 25.8628 5.44847 25.6185 4.22681C25.2836 2.55862 26.5516 1.09474 28.1608 1.09474V1.09474ZM98.8293 1.15372C100.51 0.799861 101.989 2.07207 101.989 3.68971V21.5996C101.989 22.2252 101.266 22.5727 100.778 22.1851L86.7307 11.0407V19.7587C86.7307 21.3763 85.2521 22.6485 83.5713 22.2947C82.3665 22.0419 81.5408 20.9193 81.5408 19.6892V1.84248C81.5408 1.21691 82.2633 0.869369 82.7519 1.25693L96.8009 12.4014V3.75922C96.8009 2.52914 97.6287 1.40858 98.8314 1.15372H98.8293ZM62.2534 0.597656C70.8534 0.597656 77.8253 5.57695 77.8253 11.7189C77.8253 17.8609 70.8534 22.8402 62.2534 22.8402C53.6534 22.8402 46.6815 17.8609 46.6815 11.7189C46.6815 5.57695 53.6534 0.597656 62.2534 0.597656ZM62.2534 5.78758C56.3115 5.78758 51.8714 8.91965 51.8714 11.7189C51.8714 14.5182 56.3115 17.6503 62.2534 17.6503C68.1953 17.6503 72.6353 14.5203 72.6353 11.7189C72.6353 8.91755 68.1953 5.78758 62.2534 5.78758V5.78758Z" fill="black"/>
</svg>
